<?xml version="1.0" encoding="UTF-8"?>
<svg xmlns="http://www.w3.org/2000/svg" version="1.1" viewBox="75 440 180 180">
  <defs>
    <style>
      .st0 {
        fill: #90a156;
      }
    </style>
  </defs>
  <path class="st0" d="M240.63,540.98c-2.49-2.31-5.84-3.32-9.79-3.08-8.62.53-16.63,3.69-23.78,8.43-12.58,8.35-29.02,27.47-18.25,43,10.49,15.12,34.49,10.19,46.11-.73,10.73-10.09,14.23-28.62,9.09-42.38-.81-2.18-1.96-3.92-3.38-5.24Z"/>
  <path class="st0" d="M94.58,540.98c2.49-2.31,5.84-3.32,9.79-3.08,8.62.53,16.63,3.69,23.78,8.43,12.58,8.35,29.02,27.47,18.25,43-10.49,15.12-34.49,10.19-46.11-.73-10.73-10.09-14.23-28.62-9.09-42.38.81-2.18,1.96-3.92,3.38-5.24Z"/>
  <path class="st0" d="M250.83,470.86c-.06-.44-.13-.88-.21-1.32-1.54-8.55-6.67-15.58-14.56-19.44-4.39-2.15-8.52-3.32-13.42-2.89-5.81.51-11.42,2.48-16.62,5.06-10.55,5.24-19.51,13.94-31.37,16.19-2.62.5-5.29.61-7.97.43-.01,0-.02,0-.04,0-.01,0-.03,0-.04,0-2.67.18-5.35.07-7.97-.43-11.85-2.25-20.81-10.94-31.37-16.19-5.19-2.58-10.81-4.55-16.62-5.06-4.91-.43-9.03.74-13.42,2.89-7.88,3.86-13.02,10.9-14.56,19.44-.08.44-.15.88-.21,1.32-2.97,22.07,7.75,44.39,26.84,55.74,6.02,3.58,12.34,5.93,19.46,5.42,7.33-.52,13.19-3.94,18.85-8.35,5.86-4.56,11.48-6.62,18.94-6.39.03,0,.05,0,.08,0,.03,0,.05,0,.08,0,7.46-.23,13.08,1.83,18.94,6.39,5.66,4.41,11.52,7.83,18.85,8.35,7.12.51,13.44-1.84,19.46-5.42,19.1-11.35,29.81-33.66,26.84-55.74Z"/>
</svg>
